<svg version="1.1" id="Layer_1" xmlns="http://www.w3.org/2000/svg" xmlns:xlink="http://www.w3.org/1999/xlink" x="0px" y="0px"
	 width="100%" viewBox="0 0 271 198" enable-background="new 0 0 271 198" xml:space="preserve">
<path fill="#0E6FFD" opacity="1.000000" stroke="none" 
	d="
M166.000000,199.000000 
	C110.666679,199.000000 55.833351,199.000000 1.000022,199.000000 
	C1.000015,133.000015 1.000015,67.000046 1.000007,1.000049 
	C91.333290,1.000032 181.666580,1.000032 271.999908,1.000016 
	C271.999939,66.999947 271.999939,132.999893 271.999969,198.999924 
	C236.833328,199.000000 201.666672,199.000000 166.000000,199.000000 
M49.491093,170.557129 
	C50.937912,170.070450 53.673687,169.383957 53.633968,169.127731 
	C53.192932,166.282623 52.978710,163.000443 51.348568,160.875549 
	C50.159241,159.325272 46.951218,159.323669 44.643105,158.631683 
	C44.524197,159.176071 44.405285,159.720444 44.286377,160.264832 
	C45.732174,160.887207 47.177971,161.509598 48.997372,162.292801 
	C45.636055,163.625290 42.351871,164.717697 45.461552,169.555161 
	C46.587284,169.786652 47.713017,170.018143 49.491093,170.557129 
M63.482956,160.591675 
	C64.109406,162.026138 64.846382,163.424423 65.331245,164.905258 
	C65.816803,166.388214 66.050583,167.953613 66.394714,169.482864 
	C66.742004,169.441269 67.089302,169.399673 67.436592,169.358078 
	C68.410431,166.165939 69.384262,162.973785 70.358101,159.781631 
	C70.873184,159.871521 71.388275,159.961426 71.903358,160.051315 
	C72.637772,162.726471 73.372185,165.401642 74.106606,168.076797 
	C76.068413,164.245071 76.261330,160.113708 72.750107,158.287689 
	C70.897324,157.324142 67.394287,159.552063 64.625755,160.299820 
	C64.378273,160.366669 64.052597,160.144028 63.910927,159.410950 
	C63.062576,158.828339 62.091679,157.640503 61.390049,157.782562 
	C59.650780,158.134735 56.576115,159.173676 56.609917,159.797302 
	C56.802971,163.359039 56.007195,167.411346 59.519989,170.163620 
	C59.953114,168.332153 59.579586,166.647308 59.488781,164.947357 
	C59.361031,162.555817 59.421520,160.138260 63.482956,160.591675 
M59.176662,138.911118 
	C60.429760,144.640656 63.707813,148.585220 69.554047,149.768875 
	C74.487701,150.767776 79.173477,149.510635 81.944305,145.226624 
	C83.947266,142.129807 85.469482,138.327896 85.913109,134.683060 
	C88.166664,116.168259 89.970802,97.599098 91.991631,79.055443 
	C92.767624,71.934723 93.700684,64.831116 94.562172,57.719715 
	C95.122169,57.605457 95.682167,57.491196 96.242165,57.376934 
	C97.919861,59.932346 99.955185,62.324566 101.209496,65.073189 
	C105.283592,74.000938 108.879440,83.149071 113.034149,92.037186 
	C116.055771,98.501328 119.127396,105.060631 123.142387,110.915276 
	C129.882431,120.743622 141.447021,120.131279 147.735474,109.995171 
	C149.476059,107.189598 150.844849,104.092918 151.978470,100.981941 
	C156.363556,88.947929 160.550507,76.841866 164.889297,64.790741 
	C166.087982,61.461361 167.556961,58.229305 168.901932,54.952599 
	C169.473068,55.019653 170.044205,55.086708 170.615356,55.153767 
	C171.114624,59.026051 172.097336,62.906345 172.033356,66.769302 
	C171.665695,88.972015 172.372665,111.082321 176.804535,132.924011 
	C178.171494,139.660843 182.664383,143.621277 188.654373,143.757828 
	C194.521545,143.891556 199.889771,140.088638 200.961700,133.455750 
	C202.171295,125.971039 202.809738,118.243950 202.431305,110.685631 
	C201.757141,97.221054 200.177628,83.799690 198.891129,70.368462 
	C197.474442,55.578190 195.052063,41.017082 189.346359,27.148033 
	C182.940186,11.576281 169.341019,8.836310 158.246094,21.564041 
	C153.617279,26.874062 149.941727,33.234718 146.841232,39.608250 
	C141.575317,50.433174 137.108200,61.646698 132.028030,73.335068 
	C128.851303,67.395088 126.308281,61.586323 122.845375,56.390659 
	C116.224525,46.456905 109.762703,36.278389 101.961311,27.309204 
	C94.134155,18.310408 83.412125,20.324450 78.019669,31.070028 
	C75.365395,36.359203 73.272324,42.124840 72.074615,47.912701 
	C68.803673,63.719265 65.806000,79.600098 63.342644,95.550751 
	C61.168468,109.628937 56.672688,123.528542 59.176662,138.911118 
M234.172913,136.115402 
	C248.324707,124.716179 252.282303,105.903175 243.543457,91.571037 
	C240.500366,86.580254 235.754150,84.610519 231.930405,86.751457 
	C228.188797,88.846405 227.285568,93.559174 229.653793,98.629951 
	C234.579788,109.177284 233.688629,114.797920 225.665970,123.270805 
	C222.922455,126.168297 221.399979,129.271301 223.780777,133.079788 
	C226.088974,136.772156 229.251999,138.284882 234.172913,136.115402 
M230.448074,34.914619 
	C226.731033,40.560482 226.692230,46.748436 230.346985,51.033028 
	C233.569138,54.810478 239.380402,55.930573 244.553452,53.771233 
	C249.685211,51.629131 253.125839,46.063663 251.912170,40.465515 
	C251.375732,37.991123 249.600510,34.699791 247.537033,33.853600 
	C242.197418,31.663919 236.380203,30.521345 230.448074,34.914619 
M95.009933,165.684418 
	C97.557648,167.013062 100.105362,168.341705 102.653076,169.670364 
	C102.902908,169.309311 103.152740,168.948242 103.402580,168.587189 
	C102.341301,167.399002 101.280022,166.210800 100.088913,164.877258 
	C104.071465,163.331604 105.701462,160.795288 104.021362,156.957825 
	C102.514580,153.516235 97.807976,153.053391 91.811432,155.234818 
	C91.811432,160.130219 91.811432,164.753754 91.811432,169.377289 
	C92.198692,169.400085 92.585945,169.422867 92.973206,169.445663 
	C93.430389,168.125778 93.887573,166.805908 95.009933,165.684418 
M176.313507,167.207520 
	C178.148483,167.959717 179.983459,168.711914 181.818451,169.464111 
	C182.000412,169.116974 182.182373,168.769821 182.364334,168.422684 
	C181.337433,167.318359 180.310547,166.214050 179.080643,164.891403 
	C182.745453,163.444016 184.743393,161.104263 183.108948,157.152023 
	C181.650314,153.624924 177.506470,153.072388 170.972565,155.040695 
	C170.972565,160.014557 170.972565,164.693710 170.972565,169.372849 
	C171.370834,169.361908 171.769119,169.350952 172.167389,169.340012 
	C172.544785,168.044586 172.922165,166.749176 173.354630,165.264740 
	C174.342667,165.963867 175.015778,166.440140 176.313507,167.207520 
M196.976761,160.567688 
	C197.550919,165.671295 198.125061,170.774902 198.699219,175.878510 
	C199.115845,176.059937 199.532471,176.241348 199.949097,176.422760 
	C200.448563,171.288300 199.299500,164.685028 207.560394,167.095276 
	C207.567627,160.663452 205.888702,159.571609 196.976761,160.567688 
M223.802399,167.760544 
	C225.723282,168.764771 227.565598,170.047363 229.607269,170.623489 
	C230.329987,170.827423 232.475952,169.112091 232.370361,168.609467 
	C231.778183,165.790344 231.301483,162.571899 229.576263,160.493347 
	C228.359329,159.027176 225.221405,159.155411 222.941132,158.571808 
	C222.808319,159.117889 222.675507,159.663986 222.542694,160.210083 
	C224.106766,160.880280 225.670837,161.550476 226.297302,161.818909 
	C225.403152,163.671860 224.560440,165.418213 223.802399,167.760544 
M135.207748,158.948853 
	C133.692459,158.948853 132.177170,158.948853 130.661880,158.948853 
	C130.618713,159.359589 130.575531,159.770340 130.532364,160.181076 
	C132.078354,160.853989 133.624344,161.526917 134.036469,161.706299 
	C133.265778,164.148254 131.518600,166.791168 132.205368,168.385956 
	C132.798767,169.763977 136.158539,169.950729 138.295425,170.664108 
	C138.897263,168.758881 140.318314,166.643951 139.897644,165.000443 
	C139.347549,162.851318 137.341202,161.074936 135.207748,158.948853 
M215.624969,171.000671 
	C215.669052,170.328873 216.014297,169.329437 215.703476,169.043747 
	C214.548294,167.981918 213.177292,167.154861 211.887329,166.239655 
	C213.663483,165.126038 215.466690,165.520905 216.063934,164.847000 
	C217.402573,163.336548 218.141479,161.294632 219.124588,159.469116 
	C217.409012,159.264236 214.956635,158.256958 214.127960,159.017914 
	C212.279846,160.715012 210.479004,163.163498 210.067947,165.548660 
	C209.553055,168.536346 211.402817,170.898697 215.624969,171.000671 
M193.936707,158.481491 
	C191.314209,159.638367 187.988678,160.200256 186.323700,162.167526 
	C185.266083,163.417145 186.661102,166.758011 187.037582,169.148254 
	C187.052383,169.242172 187.910172,169.203308 188.284225,169.221802 
	C188.193573,167.855392 188.108566,166.573959 188.017456,165.200684 
	C192.091354,164.985748 195.815674,164.557129 193.936707,158.481491 
M109.295303,168.770081 
	C109.192444,167.636826 109.089584,166.503586 108.984688,165.347885 
	C110.630516,165.080994 112.185440,165.125854 113.469261,164.557922 
	C116.029640,163.425232 116.887222,159.308365 114.785660,158.573059 
	C113.338882,158.066864 110.760963,158.343857 109.835075,159.338272 
	C108.200775,161.093552 107.107140,163.578964 106.509895,165.941422 
	C106.319016,166.696457 108.414116,168.029419 109.295303,168.770081 
M31.390240,163.851517 
	C31.958040,165.765717 32.525841,167.679932 33.093639,169.594131 
	C33.489792,169.434128 33.885944,169.274124 34.282093,169.114120 
	C34.202610,167.835007 34.123127,166.555908 34.028919,165.039764 
	C35.084225,165.039764 36.117699,165.358841 36.667141,164.978561 
	C38.175636,163.934525 39.633327,162.719376 40.773788,161.300766 
	C41.116203,160.874832 40.412914,158.803711 40.081913,158.776321 
	C38.401592,158.637253 36.428566,158.446167 35.053898,159.189804 
	C33.616512,159.967377 32.742722,161.786758 31.390240,163.851517 
M239.287750,166.660187 
	C236.901230,163.106995 238.951279,161.136490 241.463715,160.075409 
	C240.278564,157.780624 239.340424,155.964096 238.417831,154.177689 
	C235.547073,157.329956 234.413574,164.687073 236.838120,167.494263 
	C237.837067,168.650894 240.014511,168.789642 241.655945,169.391357 
	C241.799286,168.894974 241.942642,168.398590 242.085983,167.902206 
	C241.408615,167.577179 240.731247,167.252167 239.287750,166.660187 
M21.690010,155.987411 
	C19.760990,157.777252 18.515366,168.847656 20.612701,169.835403 
	C23.114630,171.013718 26.366339,170.600006 29.293240,170.875977 
	C29.330702,170.228683 29.368164,169.581406 29.405626,168.934113 
	C27.224728,168.726166 25.043827,168.518204 22.096794,168.237183 
	C22.096794,164.275314 22.096794,160.505417 21.690010,155.987411 
M125.057686,159.854492 
	C121.578011,159.061829 118.954208,160.346100 118.261894,163.762863 
	C117.941841,165.342438 118.739166,167.845856 119.936882,168.883118 
	C122.095734,170.752731 124.826263,170.733032 128.043152,168.233154 
	C126.290901,167.885223 125.485939,167.853012 124.790276,167.560684 
	C123.336761,166.949905 121.940933,166.201874 120.521416,165.510208 
	C121.711441,164.400192 122.925858,163.314804 124.081558,162.170151 
	C124.688995,161.568512 125.193726,160.863174 125.057686,159.854492 
M153.288559,166.857986 
	C153.066269,165.228668 152.559448,163.576813 152.686249,161.975128 
	C152.892776,159.366379 153.513260,156.790390 154.105179,153.351624 
	C150.577164,156.542038 148.617783,164.979355 150.406097,167.574860 
	C150.987961,168.419357 152.564117,168.578781 153.685501,169.051529 
	C153.785797,168.384308 153.886078,167.717102 153.288559,166.857986 
M143.189606,167.387741 
	C144.566803,167.986481 145.944016,168.585205 147.321213,169.183945 
	C147.455032,168.769409 147.588852,168.354889 147.722672,167.940353 
	C141.702347,163.906387 148.367233,158.562317 146.303192,153.377975 
	C142.349838,157.537689 143.104980,162.195679 143.189606,167.387741 
z"/>
<path fill="#FDFEFF" opacity="1.000000" stroke="none" 
	d="
M59.124626,138.496658 
	C56.672688,123.528542 61.168468,109.628937 63.342644,95.550751 
	C65.806000,79.600098 68.803673,63.719265 72.074615,47.912701 
	C73.272324,42.124840 75.365395,36.359203 78.019669,31.070028 
	C83.412125,20.324450 94.134155,18.310408 101.961311,27.309204 
	C109.762703,36.278389 116.224525,46.456905 122.845375,56.390659 
	C126.308281,61.586323 128.851303,67.395088 132.028030,73.335068 
	C137.108200,61.646698 141.575317,50.433174 146.841232,39.608250 
	C149.941727,33.234718 153.617279,26.874062 158.246094,21.564041 
	C169.341019,8.836310 182.940186,11.576281 189.346359,27.148033 
	C195.052063,41.017082 197.474442,55.578190 198.891129,70.368462 
	C200.177628,83.799690 201.757141,97.221054 202.431305,110.685631 
	C202.809738,118.243950 202.171295,125.971039 200.961700,133.455750 
	C199.889771,140.088638 194.521545,143.891556 188.654373,143.757828 
	C182.664383,143.621277 178.171494,139.660843 176.804535,132.924011 
	C172.372665,111.082321 171.665695,88.972015 172.033356,66.769302 
	C172.097336,62.906345 171.114624,59.026051 170.615356,55.153767 
	C170.044205,55.086708 169.473068,55.019653 168.901932,54.952599 
	C167.556961,58.229305 166.087982,61.461361 164.889297,64.790741 
	C160.550507,76.841866 156.363556,88.947929 151.978470,100.981941 
	C150.844849,104.092918 149.476059,107.189598 147.735474,109.995171 
	C141.447021,120.131279 129.882431,120.743622 123.142387,110.915276 
	C119.127396,105.060631 116.055771,98.501328 113.034149,92.037186 
	C108.879440,83.149071 105.283592,74.000938 101.209496,65.073189 
	C99.955185,62.324566 97.919861,59.932346 96.242165,57.376934 
	C95.682167,57.491196 95.122169,57.605457 94.562172,57.719715 
	C93.700684,64.831116 92.767624,71.934723 91.991631,79.055443 
	C89.970802,97.599098 88.166664,116.168259 85.913109,134.683060 
	C85.469482,138.327896 83.947266,142.129807 81.944305,145.226624 
	C79.173477,149.510635 74.487701,150.767776 69.554047,149.768875 
	C63.707813,148.585220 60.429760,144.640656 59.124626,138.496658 
z"/>
<path fill="#FAFCFF" opacity="1.000000" stroke="none" 
	d="
M233.851776,136.331833 
	C229.251999,138.284882 226.088974,136.772156 223.780777,133.079788 
	C221.399979,129.271301 222.922455,126.168297 225.665970,123.270805 
	C233.688629,114.797920 234.579788,109.177284 229.653793,98.629951 
	C227.285568,93.559174 228.188797,88.846405 231.930405,86.751457 
	C235.754150,84.610519 240.500366,86.580254 243.543457,91.571037 
	C252.282303,105.903175 248.324707,124.716179 233.851776,136.331833 
z"/>
<path fill="#FAFCFF" opacity="1.000000" stroke="none" 
	d="
M230.721039,34.638138 
	C236.380203,30.521345 242.197418,31.663919 247.537033,33.853600 
	C249.600510,34.699791 251.375732,37.991123 251.912170,40.465515 
	C253.125839,46.063663 249.685211,51.629131 244.553452,53.771233 
	C239.380402,55.930573 233.569138,54.810478 230.346985,51.033028 
	C226.692230,46.748436 226.731033,40.560482 230.721039,34.638138 
z"/>
<path fill="#D7E7FF" opacity="1.000000" stroke="none" 
	d="
M94.677345,165.585220 
	C93.887573,166.805908 93.430389,168.125778 92.973206,169.445663 
	C92.585945,169.422867 92.198692,169.400085 91.811432,169.377289 
	C91.811432,164.753754 91.811432,160.130219 91.811432,155.234818 
	C97.807976,153.053391 102.514580,153.516235 104.021362,156.957825 
	C105.701462,160.795288 104.071465,163.331604 100.088913,164.877258 
	C101.280022,166.210800 102.341301,167.399002 103.402580,168.587189 
	C103.152740,168.948242 102.902908,169.309311 102.653076,169.670364 
	C100.105362,168.341705 97.557648,167.013062 94.677345,165.585220 
M101.350571,161.061432 
	C101.545654,156.555420 100.633667,156.146011 93.516792,157.461441 
	C93.895889,158.991409 94.275429,160.523163 94.715233,162.298080 
	C96.850525,162.058151 98.791466,161.840057 101.350571,161.061432 
z"/>
<path fill="#D7E7FF" opacity="1.000000" stroke="none" 
	d="
M176.001190,167.061966 
	C175.015778,166.440140 174.342667,165.963867 173.354630,165.264740 
	C172.922165,166.749176 172.544785,168.044586 172.167389,169.340012 
	C171.769119,169.350952 171.370834,169.361908 170.972565,169.372849 
	C170.972565,164.693710 170.972565,160.014557 170.972565,155.040695 
	C177.506470,153.072388 181.650314,153.624924 183.108948,157.152023 
	C184.743393,161.104263 182.745453,163.444016 179.080643,164.891403 
	C180.310547,166.214050 181.337433,167.318359 182.364334,168.422684 
	C182.182373,168.769821 182.000412,169.116974 181.818451,169.464111 
	C179.983459,168.711914 178.148483,167.959717 176.001190,167.061966 
M173.043427,158.884598 
	C173.097641,159.373978 172.971390,160.118225 173.238312,160.307220 
	C174.229340,161.008926 175.375320,162.042892 176.415482,161.991302 
	C177.875320,161.918900 179.369400,161.113037 180.661285,160.316635 
	C180.910309,160.163132 180.308411,157.824982 180.077744,157.821274 
	C177.597641,157.781479 175.113251,158.007965 173.043427,158.884598 
z"/>
<path fill="#E8F1FF" opacity="1.000000" stroke="none" 
	d="
M197.351349,160.319031 
	C205.888702,159.571609 207.567627,160.663452 207.560394,167.095276 
	C199.299500,164.685028 200.448563,171.288300 199.949097,176.422760 
	C199.532471,176.241348 199.115845,176.059937 198.699219,175.878510 
	C198.125061,170.774902 197.550919,165.671295 197.351349,160.319031 
z"/>
<path fill="#D7E7FF" opacity="1.000000" stroke="none" 
	d="
M223.760071,167.462555 
	C224.560440,165.418213 225.403152,163.671860 226.297302,161.818909 
	C225.670837,161.550476 224.106766,160.880280 222.542694,160.210083 
	C222.675507,159.663986 222.808319,159.117889 222.941132,158.571808 
	C225.221405,159.155411 228.359329,159.027176 229.576263,160.493347 
	C231.301483,162.571899 231.778183,165.790344 232.370361,168.609467 
	C232.475952,169.112091 230.329987,170.827423 229.607269,170.623489 
	C227.565598,170.047363 225.723282,168.764771 223.760071,167.462555 
z"/>
<path fill="#D7E7FF" opacity="1.000000" stroke="none" 
	d="
M135.584534,159.043518 
	C137.341202,161.074936 139.347549,162.851318 139.897644,165.000443 
	C140.318314,166.643951 138.897263,168.758881 138.295425,170.664108 
	C136.158539,169.950729 132.798767,169.763977 132.205368,168.385956 
	C131.518600,166.791168 133.265778,164.148254 134.036469,161.706299 
	C133.624344,161.526917 132.078354,160.853989 130.532364,160.181076 
	C130.575531,159.770340 130.618713,159.359589 130.661880,158.948853 
	C132.177170,158.948853 133.692459,158.948853 135.584534,159.043518 
z"/>
<path fill="#D3E5FF" opacity="1.000000" stroke="none" 
	d="
M63.763237,160.055817 
	C64.052597,160.144028 64.378273,160.366669 64.625755,160.299820 
	C67.394287,159.552063 70.897324,157.324142 72.750107,158.287689 
	C76.261330,160.113708 76.068413,164.245071 74.106606,168.076797 
	C73.372185,165.401642 72.637772,162.726471 71.903358,160.051315 
	C71.388275,159.961426 70.873184,159.871521 70.358101,159.781631 
	C69.384262,162.973785 68.410431,166.165939 67.436592,169.358078 
	C67.089302,169.399673 66.742004,169.441269 66.394714,169.482864 
	C66.050583,167.953613 65.816803,166.388214 65.331245,164.905258 
	C64.846382,163.424423 64.109406,162.026138 63.385269,160.325989 
	C63.287579,160.060318 63.763237,160.055817 63.763237,160.055817 
z"/>
<path fill="#DDEBFF" opacity="1.000000" stroke="none" 
	d="
M215.280579,171.032501 
	C211.402817,170.898697 209.553055,168.536346 210.067947,165.548660 
	C210.479004,163.163498 212.279846,160.715012 214.127960,159.017914 
	C214.956635,158.256958 217.409012,159.264236 219.124603,159.469116 
	C218.141479,161.294632 217.402573,163.336548 216.063934,164.847000 
	C215.466690,165.520905 213.663483,165.126038 211.887329,166.239655 
	C213.177292,167.154861 214.548294,167.981918 215.703476,169.043747 
	C216.014297,169.329437 215.669052,170.328873 215.280579,171.032501 
z"/>
<path fill="#DCEAFF" opacity="1.000000" stroke="none" 
	d="
M194.207001,158.766449 
	C195.815674,164.557129 192.091354,164.985748 188.017456,165.200684 
	C188.108566,166.573959 188.193573,167.855392 188.284225,169.221802 
	C187.910172,169.203308 187.052383,169.242172 187.037582,169.148254 
	C186.661102,166.758011 185.266083,163.417145 186.323700,162.167526 
	C187.988678,160.200256 191.314209,159.638367 194.207001,158.766449 
z"/>
<path fill="#DCEAFF" opacity="1.000000" stroke="none" 
	d="
M109.379288,168.934021 
	C108.414116,168.029419 106.319016,166.696457 106.509895,165.941422 
	C107.107140,163.578964 108.200775,161.093552 109.835075,159.338272 
	C110.760963,158.343857 113.338882,158.066864 114.785660,158.573059 
	C116.887222,159.308365 116.029640,163.425232 113.469261,164.557922 
	C112.185440,165.125854 110.630516,165.080994 108.984688,165.347885 
	C109.089584,166.503586 109.192444,167.636826 109.379288,168.934021 
z"/>
<path fill="#DCEAFF" opacity="1.000000" stroke="none" 
	d="
M31.506403,163.501129 
	C32.742722,161.786758 33.616512,159.967377 35.053898,159.189804 
	C36.428566,158.446167 38.401592,158.637253 40.081913,158.776321 
	C40.412914,158.803711 41.116203,160.874832 40.773788,161.300766 
	C39.633327,162.719376 38.175636,163.934525 36.667141,164.978561 
	C36.117699,165.358841 35.084225,165.039764 34.028919,165.039764 
	C34.123127,166.555908 34.202610,167.835007 34.282093,169.114120 
	C33.885944,169.274124 33.489792,169.434128 33.093639,169.594131 
	C32.525841,167.679932 31.958040,165.765717 31.506403,163.501129 
z"/>
<path fill="#DFECFF" opacity="1.000000" stroke="none" 
	d="
M239.670807,166.793671 
	C240.731247,167.252167 241.408615,167.577179 242.085983,167.902206 
	C241.942642,168.398590 241.799286,168.894974 241.655945,169.391357 
	C240.014511,168.789642 237.837067,168.650894 236.838120,167.494263 
	C234.413574,164.687073 235.547073,157.329956 238.417831,154.177689 
	C239.340424,155.964096 240.278564,157.780624 241.463715,160.075409 
	C238.951279,161.136490 236.901230,163.106995 239.670807,166.793671 
z"/>
<path fill="#EFF5FF" opacity="1.000000" stroke="none" 
	d="
M21.893402,156.361450 
	C22.096794,160.505417 22.096794,164.275314 22.096794,168.237183 
	C25.043827,168.518204 27.224728,168.726166 29.405626,168.934113 
	C29.368164,169.581406 29.330702,170.228683 29.293240,170.875977 
	C26.366339,170.600006 23.114630,171.013718 20.612701,169.835403 
	C18.515366,168.847656 19.760990,157.777252 21.893402,156.361450 
z"/>
<path fill="#EBF3FF" opacity="1.000000" stroke="none" 
	d="
M45.106972,168.944489 
	C42.351871,164.717697 45.636055,163.625290 48.997372,162.292801 
	C47.177971,161.509598 45.732174,160.887207 44.286377,160.264832 
	C44.405285,159.720444 44.524197,159.176071 44.643105,158.631683 
	C46.951218,159.323669 50.159241,159.325272 51.348568,160.875549 
	C52.978710,163.000443 53.192932,166.282623 53.633968,169.127731 
	C53.673687,169.383957 50.937912,170.070450 49.416779,170.155533 
	C50.023148,168.342789 50.703838,166.931625 51.384525,165.520477 
	C49.789330,165.814682 48.100983,165.886108 46.638477,166.497650 
	C45.913658,166.800720 45.604294,168.097351 45.106972,168.944489 
z"/>
<path fill="#E1EDFF" opacity="1.000000" stroke="none" 
	d="
M125.401260,160.029572 
	C125.193726,160.863174 124.688995,161.568512 124.081558,162.170151 
	C122.925858,163.314804 121.711441,164.400192 120.521416,165.510208 
	C121.940933,166.201874 123.336761,166.949905 124.790276,167.560684 
	C125.485939,167.853012 126.290901,167.885223 128.043152,168.233154 
	C124.826263,170.733032 122.095734,170.752731 119.936882,168.883118 
	C118.739166,167.845856 117.941841,165.342438 118.261894,163.762863 
	C118.954208,160.346100 121.578011,159.061829 125.401260,160.029572 
z"/>
<path fill="#D8E8FF" opacity="1.000000" stroke="none" 
	d="
M63.837082,159.733383 
	C63.763237,160.055817 63.287579,160.060318 63.050003,160.071564 
	C59.421520,160.138260 59.361031,162.555817 59.488781,164.947357 
	C59.579586,166.647308 59.953114,168.332153 59.519989,170.163620 
	C56.007195,167.411346 56.802971,163.359039 56.609917,159.797302 
	C56.576115,159.173676 59.650780,158.134735 61.390049,157.782562 
	C62.091679,157.640503 63.062576,158.828339 63.837082,159.733383 
z"/>
<path fill="#E1EDFF" opacity="1.000000" stroke="none" 
	d="
M153.637451,166.953934 
	C153.886078,167.717102 153.785797,168.384308 153.685516,169.051529 
	C152.564117,168.578781 150.987961,168.419357 150.406097,167.574860 
	C148.617783,164.979355 150.577164,156.542038 154.105179,153.351624 
	C153.513260,156.790390 152.892776,159.366379 152.686249,161.975128 
	C152.559448,163.576813 153.066269,165.228668 153.637451,166.953934 
z"/>
<path fill="#E1EDFF" opacity="1.000000" stroke="none" 
	d="
M143.092468,167.006561 
	C143.104980,162.195679 142.349838,157.537689 146.303192,153.377975 
	C148.367233,158.562317 141.702347,163.906387 147.722672,167.940353 
	C147.588852,168.354889 147.455032,168.769409 147.321213,169.183945 
	C145.944016,168.585205 144.566803,167.986481 143.092468,167.006561 
z"/>
<path fill="#CADFFF" opacity="1.000000" stroke="none" 
	d="
M45.284264,169.249817 
	C45.604294,168.097351 45.913658,166.800720 46.638477,166.497650 
	C48.100983,165.886108 49.789330,165.814682 51.384525,165.520477 
	C50.703838,166.931625 50.023148,168.342789 49.090607,170.001801 
	C47.713017,170.018143 46.587284,169.786652 45.284264,169.249817 
z"/>
<path fill="#1A76FD" opacity="1.000000" stroke="none" 
	d="
M101.041489,161.341705 
	C98.791466,161.840057 96.850525,162.058151 94.715233,162.298080 
	C94.275429,160.523163 93.895889,158.991409 93.516792,157.461441 
	C100.633667,156.146011 101.545654,156.555420 101.041489,161.341705 
z"/>
<path fill="#1A76FD" opacity="1.000000" stroke="none" 
	d="
M172.836731,158.523071 
	C175.113251,158.007965 177.597641,157.781479 180.077744,157.821274 
	C180.308411,157.824982 180.910309,160.163132 180.661285,160.316635 
	C179.369400,161.113037 177.875320,161.918900 176.415482,161.991302 
	C175.375320,162.042892 174.229340,161.008926 173.238312,160.307220 
	C172.971390,160.118225 173.097641,159.373978 172.836731,158.523071 
z"/>
</svg>